<svg width="523" height="485" viewBox="0 0 523 485" fill="none" xmlns="http://www.w3.org/2000/svg">
<rect width="523" height="484.985" rx="87" fill="black"/>
<path d="M393.796 83.8556C393.796 149.396 393.796 214.936 393.796 282.463C395.102 282.626 396.408 282.79 397.754 282.958C398.407 283.121 399.061 283.285 399.733 283.453C407.081 283.78 414.429 284.107 422 284.444C422 299.807 422 315.171 422 331C371.871 331 321.741 331 270.093 331C270.093 320.867 270.093 310.733 270.093 300.293C270.047 294.976 270.047 294.976 270 289.551C270.257 281.877 271.816 276.475 275.107 269.633C276.886 265.82 278.304 261.844 279.801 257.914C280.807 255.279 281.826 252.648 282.844 250.018C283.054 249.476 283.263 248.933 283.479 248.374C285.924 242.054 288.398 235.745 290.875 229.437C291.103 228.855 291.332 228.274 291.567 227.674C294.938 219.091 298.327 210.514 301.722 201.94C304.606 194.654 307.475 187.362 310.327 180.064C310.514 179.587 310.7 179.109 310.892 178.618C312.73 173.918 314.562 169.216 316.375 164.507C319.734 155.788 323.192 147.113 326.718 138.46C326.928 137.943 327.139 137.426 327.355 136.893C329.797 130.9 332.282 124.933 334.913 119.02C335.24 119.184 335.566 119.347 335.903 119.516C337.229 127.384 336.966 135.841 337.165 143.808C337.181 144.421 337.181 144.421 337.197 145.047C337.421 154.029 337.464 163.009 337.452 171.994C337.449 174.14 337.451 176.287 337.453 178.434C337.462 186.418 337.438 194.399 337.177 202.38C337.159 202.944 337.141 203.508 337.122 204.089C336.709 215.022 333.684 224.925 330.336 235.256C330.188 235.713 330.041 236.17 329.888 236.64C326.833 246.047 323.419 255.305 319.921 264.555C318.554 268.173 317.211 271.799 315.894 275.436C315.716 275.92 315.538 276.404 315.355 276.903C315.117 277.56 315.117 277.56 314.875 278.231C314.742 278.599 314.608 278.967 314.47 279.345C314.07 280.684 313.866 282.075 313.636 283.453C330.047 283.698 330.047 283.698 346.789 283.948C346.753 279.714 346.717 275.48 346.68 271.118C346.657 268.249 346.634 265.379 346.612 262.51C346.608 261.952 346.608 261.952 346.604 261.383C346.364 229.944 346.227 198.506 346.205 167.067C346.202 163.667 346.197 160.267 346.191 156.867C346.148 133.006 346.409 109.188 347.283 85.3414C357.731 81.1585 393.571 83.8556 393.796 83.8556Z" fill="white"/>
<path d="M149.278 84C150.068 85.5831 149.956 87.3137 150.037 89.0564C150.068 89.6844 150.068 89.6844 150.1 90.3251C150.314 94.9671 150.4 99.6109 150.474 104.257C150.499 105.851 150.527 107.444 150.556 109.038C150.636 113.562 150.714 118.087 150.788 122.612C151.043 138.754 151.043 138.754 151.716 154.882C151.734 155.224 151.752 155.566 151.771 155.918C152.645 172.066 157.199 186.31 167.097 199.104C167.457 199.571 167.457 199.571 167.824 200.048C173.996 207.994 181.019 215.085 188.103 222.206C188.405 222.51 188.707 222.814 189.018 223.127C191.845 225.971 194.66 228.785 197.71 231.39C200.098 233.531 202.333 235.839 204.594 238.113C205.487 239.011 206.382 239.906 207.278 240.801C210.16 243.687 212.971 246.592 215.605 249.711C216.035 250.189 216.465 250.667 216.908 251.16C228.753 264.634 237.386 282.137 243.199 299.046C243.333 299.423 243.466 299.8 243.603 300.188C246.302 308.308 247.093 316.308 246.992 324.826C246.973 326.396 246.971 327.964 246.971 329.534C246.949 335.734 246.559 341.796 245.798 347.946C240.935 347.958 236.072 347.967 231.209 347.972C228.95 347.975 226.691 347.978 224.432 347.984C222.243 347.989 220.054 347.992 217.865 347.993C217.039 347.994 216.213 347.996 215.387 347.999C209.34 348.018 203.327 347.802 197.291 347.45C198.679 340.152 198.679 340.152 199.549 337.403C203.509 324.533 200.754 312.077 194.816 300.317C190.091 291.777 183.162 284.374 176.612 277.215C175.673 276.183 174.753 275.14 173.841 274.084C172.055 272.023 170.203 270.025 168.352 268.023C166.887 266.439 165.437 264.843 164.004 263.231C161.62 260.563 159.162 257.965 156.71 255.361C154.317 252.819 151.949 250.257 149.599 247.676C148.412 246.374 147.22 245.077 146.025 243.783C141.063 238.408 136.201 232.955 131.459 227.384C131.17 227.044 130.88 226.704 130.582 226.354C124.415 219.076 119.117 211.764 115.125 203.074C114.959 202.719 114.792 202.365 114.621 202C102.986 177.197 102.003 148.624 111.135 122.878C114.305 114.335 118.902 107.082 125.025 100.373C125.384 99.9767 125.744 99.5808 126.115 99.173C131.135 93.9084 136.934 89.8584 143.339 86.4807C143.834 86.2185 144.329 85.9563 144.839 85.6861C148.109 84 148.109 84 149.278 84Z" fill="white"/>
<path d="M142.738 312.04C143.353 314.352 143.855 316.618 144.195 318.985C145.733 329.527 149.391 343.324 157.246 351.1C158.122 351.974 158.122 351.974 158.122 352.96C158.413 353.094 158.703 353.227 159.002 353.365C160.097 353.941 160.951 354.585 161.906 355.364C166.485 358.828 171.488 359.378 177.074 359.632C177.508 359.652 177.942 359.673 178.39 359.694C183.047 359.904 187.704 360.016 192.365 360.109C193.316 360.13 194.268 360.15 195.219 360.171C201.155 360.295 207.09 360.382 213.027 360.448C214.186 360.462 215.346 360.475 216.506 360.489C216.889 360.494 217.271 360.499 217.665 360.503C218.438 360.513 219.21 360.522 219.983 360.532C222.282 360.559 224.581 360.582 226.88 360.602C228.325 360.615 229.77 360.632 231.215 360.65C231.894 360.658 232.572 360.664 233.25 360.668C234.185 360.674 235.119 360.687 236.054 360.699C236.58 360.704 237.106 360.71 237.649 360.715C239.011 360.848 239.838 361.138 241 361.835C237.006 369.751 232.424 377.279 226.608 384.02C226.287 384.416 225.966 384.812 225.635 385.22C218.402 393.781 207.93 398.697 197.328 401.769C196.89 401.897 196.452 402.025 196.001 402.157C183.207 405.707 166.734 406.316 154.152 401.769C153.737 401.626 153.321 401.484 152.894 401.337C145.067 398.611 138.087 394.887 131.82 389.444C131.346 389.039 130.873 388.634 130.385 388.217C123.906 382.572 118.987 375.987 114.45 368.737C114.249 368.423 114.048 368.108 113.841 367.784C104.336 352.631 100.506 332.101 101.05 314.505C114.91 312.611 128.752 311.803 142.738 312.04Z" fill="white"/>
<path d="M203.289 86.0433C203.643 86.1815 203.997 86.3198 204.362 86.4622C215.947 91.0018 224.794 99.689 231.751 109.989C231.943 110.273 232.136 110.558 232.334 110.852C237.843 119.238 240.466 129.538 242.752 139.231C243.113 140.737 243.523 142.229 243.927 143.724C244.671 146.743 244.857 149.789 245 152.89C239.15 154.585 233.361 156.135 227.365 157.191C225.424 157.553 223.497 157.987 221.568 158.409C206.376 161.675 206.376 161.675 202.706 159.407C201.221 156.857 200.551 154.205 199.831 151.365C197.539 142.45 193.786 131.568 185.623 126.451C182.878 125.469 180.453 125.32 177.558 125.356C177.128 125.357 176.697 125.359 176.253 125.36C174.888 125.366 173.523 125.378 172.159 125.391C171.229 125.396 170.299 125.4 169.369 125.404C167.099 125.415 164.829 125.433 162.559 125.453C162.176 117.367 161.989 109.299 162.004 101.204C162.007 99.4855 162.004 97.7667 162.001 96.0478C162.001 94.937 162.002 93.8263 162.003 92.7155C162.002 92.2104 162.001 91.7053 162 91.1848C162.026 83.2275 162.026 83.2275 163.23 81.7C171.607 74.9511 194.733 82.5596 203.289 86.0433Z" fill="white"/>
<path d="M348.135 344.126C351.952 344.091 355.769 344.065 359.586 344.049C361.36 344.042 363.134 344.031 364.908 344.014C374.812 343.921 384.344 344.23 394 346.596C394 364.199 394 381.802 394 399.939C382.664 399.954 382.664 399.954 371.099 399.969C367.514 399.976 367.514 399.976 363.857 399.983C360.948 399.985 360.948 399.985 359.588 399.986C358.634 399.986 357.68 399.988 356.726 399.991C355.285 399.994 353.844 399.995 352.403 399.995C351.975 399.996 351.547 399.998 351.106 400C348.193 399.995 348.193 399.995 347.631 399.445C347.549 398.337 347.504 397.227 347.472 396.116C347.456 395.58 347.456 395.58 347.44 395.033C347.406 393.818 347.376 392.603 347.348 391.388C347.337 390.967 347.327 390.546 347.316 390.113C347.116 381.742 347.057 373.37 347.036 364.997C347.033 364.011 347.027 363.026 347.022 362.041C347.013 360.167 347.011 358.294 347.011 356.42C347.007 355.865 347.004 355.31 347 354.738C347.01 351.111 347.417 347.683 348.135 344.126Z" fill="white"/>
<path d="M393.796 83.8556C393.796 149.396 393.796 214.936 393.796 282.463C395.102 282.626 396.408 282.79 397.754 282.958C398.407 283.121 399.061 283.285 399.733 283.453C407.081 283.78 414.429 284.107 422 284.444C422 299.807 422 315.171 422 331C371.871 331 321.741 331 270.093 331C270.093 320.867 270.093 310.733 270.093 300.293C270.047 294.976 270.047 294.976 270 289.551C270.257 281.877 271.816 276.475 275.107 269.633C276.886 265.82 278.304 261.844 279.801 257.914C280.807 255.279 281.826 252.648 282.844 250.018C283.054 249.476 283.263 248.933 283.479 248.374C285.924 242.054 288.398 235.745 290.875 229.437C291.103 228.855 291.332 228.274 291.567 227.674C294.938 219.091 298.327 210.514 301.722 201.94C304.606 194.654 307.475 187.362 310.327 180.064C310.514 179.587 310.7 179.109 310.892 178.618C312.73 173.918 314.562 169.216 316.375 164.507C319.734 155.788 323.192 147.113 326.718 138.46C326.928 137.943 327.139 137.426 327.355 136.893C329.797 130.9 332.282 124.933 334.913 119.02C335.24 119.184 335.566 119.347 335.903 119.516C337.229 127.384 336.966 135.841 337.165 143.808C337.181 144.421 337.181 144.421 337.197 145.047C337.421 154.029 337.464 163.009 337.452 171.994C337.449 174.14 337.451 176.287 337.453 178.434C337.462 186.418 337.438 194.399 337.177 202.38C337.159 202.944 337.141 203.508 337.122 204.089C336.709 215.022 333.684 224.925 330.336 235.256C330.188 235.713 330.041 236.17 329.888 236.64C326.833 246.047 323.419 255.305 319.921 264.555C318.554 268.173 317.211 271.799 315.894 275.436C315.716 275.92 315.538 276.404 315.355 276.903C315.117 277.56 315.117 277.56 314.875 278.231C314.742 278.599 314.608 278.967 314.47 279.345C314.07 280.684 313.866 282.075 313.636 283.453C330.047 283.698 330.047 283.698 346.789 283.948C346.753 279.714 346.717 275.48 346.68 271.118C346.657 268.249 346.634 265.379 346.612 262.51C346.608 261.952 346.608 261.952 346.604 261.383C346.364 229.944 346.227 198.506 346.205 167.067C346.202 163.667 346.197 160.267 346.191 156.867C346.148 133.006 346.409 109.188 347.283 85.3414C357.731 81.1585 393.571 83.8556 393.796 83.8556Z" fill="white"/>
<path d="M149.278 84C150.068 85.5831 149.956 87.3137 150.037 89.0564C150.068 89.6844 150.068 89.6844 150.1 90.3251C150.314 94.9671 150.4 99.6109 150.474 104.257C150.499 105.851 150.527 107.444 150.556 109.038C150.636 113.562 150.714 118.087 150.788 122.612C151.043 138.754 151.043 138.754 151.716 154.882C151.734 155.224 151.752 155.566 151.771 155.918C152.645 172.066 157.199 186.31 167.097 199.104C167.457 199.571 167.457 199.571 167.824 200.048C173.996 207.994 181.019 215.085 188.103 222.206C188.405 222.51 188.707 222.814 189.018 223.127C191.845 225.971 194.66 228.785 197.71 231.39C200.098 233.531 202.333 235.839 204.594 238.113C205.487 239.011 206.382 239.906 207.278 240.801C210.16 243.687 212.971 246.592 215.605 249.711C216.035 250.189 216.465 250.667 216.908 251.16C228.753 264.634 237.386 282.137 243.199 299.046C243.333 299.423 243.466 299.8 243.603 300.188C246.302 308.308 247.093 316.308 246.992 324.826C246.973 326.396 246.971 327.964 246.971 329.534C246.949 335.734 246.559 341.796 245.798 347.946C240.935 347.958 236.072 347.967 231.209 347.972C228.95 347.975 226.691 347.978 224.432 347.984C222.243 347.989 220.054 347.992 217.865 347.993C217.039 347.994 216.213 347.996 215.387 347.999C209.34 348.018 203.327 347.802 197.291 347.45C198.679 340.152 198.679 340.152 199.549 337.403C203.509 324.533 200.754 312.077 194.816 300.317C190.091 291.777 183.162 284.374 176.612 277.215C175.673 276.183 174.753 275.14 173.841 274.084C172.055 272.023 170.203 270.025 168.352 268.023C166.887 266.439 165.437 264.843 164.004 263.231C161.62 260.563 159.162 257.965 156.71 255.361C154.317 252.819 151.949 250.257 149.599 247.676C148.412 246.374 147.22 245.077 146.025 243.783C141.063 238.408 136.201 232.955 131.459 227.384C131.17 227.044 130.88 226.704 130.582 226.354C124.415 219.076 119.117 211.764 115.125 203.074C114.959 202.719 114.792 202.365 114.621 202C102.986 177.197 102.003 148.624 111.135 122.878C114.305 114.335 118.902 107.082 125.025 100.373C125.384 99.9767 125.744 99.5808 126.115 99.173C131.135 93.9084 136.934 89.8584 143.339 86.4807C143.834 86.2185 144.329 85.9563 144.839 85.6861C148.109 84 148.109 84 149.278 84Z" fill="white"/>
<path d="M142.738 312.04C143.353 314.352 143.855 316.618 144.195 318.985C145.733 329.527 149.391 343.324 157.246 351.1C158.122 351.974 158.122 351.974 158.122 352.96C158.413 353.094 158.703 353.227 159.002 353.365C160.097 353.941 160.951 354.585 161.906 355.364C166.485 358.828 171.488 359.378 177.074 359.632C177.508 359.652 177.942 359.673 178.39 359.694C183.047 359.904 187.704 360.016 192.365 360.109C193.316 360.13 194.268 360.15 195.219 360.171C201.155 360.295 207.09 360.382 213.027 360.448C214.186 360.462 215.346 360.475 216.506 360.489C216.889 360.494 217.271 360.499 217.665 360.503C218.438 360.513 219.21 360.522 219.983 360.532C222.282 360.559 224.581 360.582 226.88 360.602C228.325 360.615 229.77 360.632 231.215 360.65C231.894 360.658 232.572 360.664 233.25 360.668C234.185 360.674 235.119 360.687 236.054 360.699C236.58 360.704 237.106 360.71 237.649 360.715C239.011 360.848 239.838 361.138 241 361.835C237.006 369.751 232.424 377.279 226.608 384.02C226.287 384.416 225.966 384.812 225.635 385.22C218.402 393.781 207.93 398.697 197.328 401.769C196.89 401.897 196.452 402.025 196.001 402.157C183.207 405.707 166.734 406.316 154.152 401.769C153.737 401.626 153.321 401.484 152.894 401.337C145.067 398.611 138.087 394.887 131.82 389.444C131.346 389.039 130.873 388.634 130.385 388.217C123.906 382.572 118.987 375.987 114.45 368.737C114.249 368.423 114.048 368.108 113.841 367.784C104.336 352.631 100.506 332.101 101.05 314.505C114.91 312.611 128.752 311.803 142.738 312.04Z" fill="white"/>
<path d="M203.289 86.0433C203.643 86.1815 203.997 86.3198 204.362 86.4622C215.947 91.0018 224.794 99.689 231.751 109.989C231.943 110.273 232.136 110.558 232.334 110.852C237.843 119.238 240.466 129.538 242.752 139.231C243.113 140.737 243.523 142.229 243.927 143.724C244.671 146.743 244.857 149.789 245 152.89C239.15 154.585 233.361 156.135 227.365 157.191C225.424 157.553 223.497 157.987 221.568 158.409C206.376 161.675 206.376 161.675 202.706 159.407C201.221 156.857 200.551 154.205 199.831 151.365C197.539 142.45 193.786 131.568 185.623 126.451C182.878 125.469 180.453 125.32 177.558 125.356C177.128 125.357 176.697 125.359 176.253 125.36C174.888 125.366 173.523 125.378 172.159 125.391C171.229 125.396 170.299 125.4 169.369 125.404C167.099 125.415 164.829 125.433 162.559 125.453C162.176 117.367 161.989 109.299 162.004 101.204C162.007 99.4855 162.004 97.7667 162.001 96.0478C162.001 94.937 162.002 93.8263 162.003 92.7155C162.002 92.2104 162.001 91.7053 162 91.1848C162.026 83.2275 162.026 83.2275 163.23 81.7C171.607 74.9511 194.733 82.5596 203.289 86.0433Z" fill="white"/>
<path d="M348.135 344.126C351.952 344.091 355.769 344.065 359.586 344.049C361.36 344.042 363.134 344.031 364.908 344.014C374.812 343.921 384.344 344.23 394 346.596C394 364.199 394 381.802 394 399.939C382.664 399.954 382.664 399.954 371.099 399.969C367.514 399.976 367.514 399.976 363.857 399.983C360.948 399.985 360.948 399.985 359.588 399.986C358.634 399.986 357.68 399.988 356.726 399.991C355.285 399.994 353.844 399.995 352.403 399.995C351.975 399.996 351.547 399.998 351.106 400C348.193 399.995 348.193 399.995 347.631 399.445C347.549 398.337 347.504 397.227 347.472 396.116C347.456 395.58 347.456 395.58 347.44 395.033C347.406 393.818 347.376 392.603 347.348 391.388C347.337 390.967 347.327 390.546 347.316 390.113C347.116 381.742 347.057 373.37 347.036 364.997C347.033 364.011 347.027 363.026 347.022 362.041C347.013 360.167 347.011 358.294 347.011 356.42C347.007 355.865 347.004 355.31 347 354.738C347.01 351.111 347.417 347.683 348.135 344.126Z" fill="white"/>
</svg>
